name C:\Users\antoi\Documents\MyRepositories\upper-imu-dc\Results\main_tracking\Case_83\kinematics.mot
datacolumns 10
datarows 47
range 0.90000000 1.36000000
endheader 
time	clav_prot	clav_elev	scapula_abduction	scapula_elevation	scapula_upward_rot	scapula_winging	plane_elv	shoulder_elv	axial_rot	
          0.90000000	        -39.76358211	        -29.00925920	        -49.99990540	        -19.28731491	         -9.45999644	         23.06718173	        -21.36473377	         30.49433039	         69.12550408	
          0.91000000	        -39.46946237	        -29.09233160	        -49.53491874	        -19.35987562	         -9.57962619	         23.35090149	        -21.58936147	         30.91561612	         68.42986118	
          0.92000000	        -39.08768814	        -29.21254250	        -48.96410791	        -19.42795402	         -9.68087065	         23.62114205	        -21.80291371	         31.33398737	         67.74735855	
          0.93000000	        -38.70331160	        -29.32207032	        -48.37907975	        -19.48994212	         -9.76845205	         23.87645961	        -21.99906484	         31.74781713	         67.06325215	
          0.94000000	        -38.31950116	        -29.42199345	        -47.78517632	        -19.54700140	         -9.84201061	         24.11678983	        -22.17821116	         32.15382771	         66.37546710	
          0.95000000	        -37.93716420	        -29.51259650	        -47.18367404	        -19.59966961	         -9.90050842	         24.34203205	        -22.34091937	         32.54960605	         65.68642115	
          0.96000000	        -37.55599827	        -29.59388071	        -46.57458706	        -19.64761849	         -9.94478759	         24.55228647	        -22.48560623	         32.93505716	         64.99769637	
          0.97000000	        -37.17557890	        -29.66593495	        -45.95768224	        -19.69063762	         -9.97557179	         24.74777093	        -22.61109818	         33.31013297	         64.31117769	
          0.98000000	        -36.79549665	        -29.72898526	        -45.33279398	        -19.72862749	         -9.99367078	         24.92884142	        -22.71650016	         33.67491638	         63.62854598	
          0.99000000	        -36.41542999	        -29.78343445	        -44.69995731	        -19.76163553	        -10.00000000	         25.09601846	        -22.80126150	         34.02962510	         62.95129147	
          1.00000000	        -36.03516041	        -29.82985340	        -44.05943639	        -19.78984637	         -9.99559263	         25.24997982	        -22.86516691	         34.37463910	         62.28072481	
          1.01000000	        -35.65456817	        -29.86888723	        -43.41160816	        -19.81356360	         -9.98135743	         25.39145209	        -22.90841469	         34.71029280	         61.61801220	
          1.02000000	        -35.27362455	        -29.90121925	        -42.75696002	        -19.83316494	         -9.95811337	         25.52117916	        -22.93151889	         35.03691264	         60.96424284	
          1.03000000	        -34.89239210	        -29.92758769	        -42.09615161	        -19.84907604	         -9.92673242	         25.63995197	        -22.93519463	         35.35496054	         60.32042146	
          1.04000000	        -34.51101308	        -29.94873394	        -41.42998416	        -19.86172584	         -9.88812124	         25.74855749	        -22.92028062	         35.66500521	         59.68753681	
          1.05000000	        -34.12968261	        -29.96536145	        -40.75934447	        -19.87151154	         -9.84320076	         25.84774168	        -22.88769419	         35.96769703	         59.06661425	
          1.06000000	        -33.74862870	        -29.97810210	        -40.08516779	        -19.87876667	         -9.79290080	         25.93817854	        -22.83837683	         36.26374900	         58.45877033	
          1.07000000	        -33.36809784	        -29.98751205	        -39.40841399	        -19.88375634	         -9.73815817	         26.02046952	        -22.77328773	         36.55392771	         57.86522856	
          1.08000000	        -32.98834663	        -29.99405660	        -38.73004801	        -19.88666597	         -9.67990251	         26.09512831	        -22.69337433	         36.83902163	         57.28732385	
          1.09000000	        -32.60964023	        -29.99809355	        -38.05102906	        -19.88759120	         -9.61903431	         26.16256202	        -22.59953501	         37.11979573	         56.72648615	
          1.10000000	        -32.23226224	        -29.99990409	        -37.37233046	        -19.88656787	         -9.55642399	         26.22310374	        -22.49264448	         37.39697955	         56.18417139	
          1.11000000	        -31.85652552	        -29.99970243	        -36.69495002	        -19.88358823	         -9.49288816	         26.27702100	        -22.37354932	         37.67122602	         55.66177486	
          1.12000000	        -31.48270806	        -29.99747172	        -36.01973380	        -19.87848158	         -9.42904667	         26.32433803	        -22.24287885	         37.94292703	         55.16050244	
          1.13000000	        -31.11110112	        -29.99308603	        -35.34749442	        -19.87101383	         -9.36538898	         26.36496521	        -22.10116017	         38.21228232	         54.68131852	
          1.14000000	        -30.74206675	        -29.98642511	        -34.67913495	        -19.86098644	         -9.30232211	         26.39882132	        -21.94892959	         38.47934963	         54.22492314	
          1.15000000	        -30.37606564	        -29.97742102	        -34.01570308	        -19.84827893	         -9.24018365	         26.42588573	        -21.78676664	         38.74404941	         53.79171084	
          1.16000000	        -30.01365189	        -29.96604297	        -33.35837443	        -19.83283809	         -9.17922839	         26.44618599	        -21.61526635	         39.00613874	         53.38176422	
          1.17000000	        -29.65546300	        -29.95230131	        -32.70843614	        -19.81467968	         -9.11963377	         26.45980742	        -21.43504805	         39.26521744	         52.99485825	
          1.18000000	        -29.30220400	        -29.93623391	        -32.06726183	        -19.79387167	         -9.06150977	         26.46688318	        -21.24674040	         39.52073522	         52.63051266	
          1.19000000	        -28.95462183	        -29.91788364	        -31.43627172	        -19.77050697	         -9.00491332	         26.46757447	        -21.05096513	         39.77200714	         52.28807005	
          1.20000000	        -28.61347872	        -29.89728424	        -30.81689577	        -19.74468106	         -8.94987298	         26.46205884	        -20.84834044	         40.01824713	         51.96678273	
          1.21000000	        -28.27952561	        -29.87444792	        -30.21053852	        -19.71647059	         -8.89641638	         26.45051905	        -20.63949102	         40.25860836	         51.66590456	
          1.22000000	        -27.95347944	        -29.84936362	        -29.61855060	        -19.68592210	         -8.84459737	         26.43314153	        -20.42507586	         40.49223056	         51.38476466	
          1.23000000	        -27.63600571	        -29.82200416	        -29.04220780	        -19.65305090	         -8.79451913	         26.41012306	        -20.20582460	         40.71828714	         51.12282197	
          1.24000000	        -27.32770676	        -29.79233592	        -28.48269605	        -19.61784515	         -8.74634793	         26.38167831	        -19.98256512	         40.93602281	         50.87970333	
          1.25000000	        -27.02912216	        -29.76033655	        -27.94111335	        -19.58028110	         -8.70031741	         26.34805475	        -19.75624700	         41.14478202	         50.65520788	
          1.26000000	        -26.74073178	        -29.72601596	        -27.41847252	        -19.54034405	         -8.65672407	         26.30955063	        -19.52796439	         41.34403024	         50.44929193	
          1.27000000	        -26.46296087	        -29.68942989	        -26.91570031	        -19.49804697	         -8.61590646	         26.26652374	        -19.29896434	         41.53335736	         50.26202990	
          1.28000000	        -26.19618895	        -29.65070164	        -26.43364038	        -19.45345909	         -8.57821774	         26.21940905	        -19.07065325	         41.71248069	         50.09355859	
          1.29000000	        -25.94077034	        -29.61003271	        -25.97307451	        -19.40672606	         -8.54399296	         26.16872431	        -18.84454380	         41.88123233	         49.94404408	
          1.30000000	        -25.69709807	        -29.56772272	        -25.53481748	        -19.35810363	         -8.51351135	         26.11508751	        -18.62217820	         42.03953153	         49.81357828	
          1.31000000	        -25.46564189	        -29.52418741	        -25.11976829	        -19.30798680	         -8.48696218	         26.05923381	        -18.40510071	         42.18735326	         49.70208016	
          1.32000000	        -25.24687870	        -29.47991499	        -24.72879044	        -19.25686279	         -8.46444598	         26.00196560	        -18.19480675	         42.32470117	         49.60945258	
          1.33000000	        -25.04129205	        -29.43545570	        -24.36270949	        -19.20530271	         -8.44596838	         25.94413836	        -17.99271554	         42.45157479	         49.53557019	
          1.34000000	        -24.84937113	        -29.39140800	        -24.02231700	        -19.15394550	         -8.43144974	         25.88664419	        -17.80012412	         42.56795887	         49.48033204	
          1.35000000	        -24.67164788	        -29.34840531	        -23.70843165	        -19.10349154	         -8.42071316	         25.83039693	        -17.61815913	         42.67379791	         49.44361592	
          1.36000000	        -24.50869320	        -29.30709497	        -23.42189645	        -19.05468143	         -8.41348878	         25.77630892	        -17.44775205	         42.76899521	         49.42532008	
